# xmcd
#
# Track frame offsets:
#	150
#	15844
#	28885
#	40921
#	56963
#	76969
#	90289
#	97505
#	112004
#	123610
#
# Disc length: 1689 seconds
#
# Revision: 1
# Processed by: cddbd v1.5.2PL0 Copyright (c) Steve Scherf et al.
# Submitted via: audiograbber 1.83.01
#
DISCID=7006970a
DTITLE=Dan Tyler - Better Living
DYEAR=2006
DGENRE=Country
TTITLE0=Better Living
TTITLE1=Whatever Turns You On
TTITLE2=Left Wing, Right Wing
TTITLE3=Child of the 60's
TTITLE4=Laverne Lavroom
TTITLE5=Frieda
TTITLE6=Pussycat
TTITLE7=Diving For Pearls
TTITLE8=Happy Christmas
TTITLE9=Better Living Reprise
EXTD=
EXTT0=
EXTT1=
EXTT2=
EXTT3=
EXTT4=
EXTT5=
EXTT6=
EXTT7=
EXTT8=
EXTT9=
PLAYORDER=
